<svg width="56" height="25" viewBox="0 0 56 25" fill="none" xmlns="http://www.w3.org/2000/svg"><rect x="0.5" y="0.5" width="55" height="24" rx="3.5" fill="#FFC7C7"/><rect x="0.5" y="0.5" width="55" height="24" rx="3.5" stroke="#5E6D81"/><path d="M9.064 8.004H15.966V9.516H10.814V12.134H15.336V13.562H10.814V18H9.064V8.004ZM23.2008 16.39C23.2008 16.586 23.2242 16.726 23.2708 16.81C23.3268 16.894 23.4295 16.936 23.5788 16.936C23.6255 16.936 23.6815 16.936 23.7468 16.936C23.8122 16.936 23.8868 16.9267 23.9708 16.908V18.014C23.9148 18.0327 23.8402 18.0513 23.7468 18.07C23.6628 18.098 23.5742 18.1213 23.4808 18.14C23.3875 18.1587 23.2942 18.1727 23.2008 18.182C23.1075 18.1913 23.0282 18.196 22.9628 18.196C22.6362 18.196 22.3655 18.1307 22.1508 18C21.9362 17.8693 21.7962 17.6407 21.7308 17.314C21.4135 17.622 21.0215 17.846 20.5548 17.986C20.0975 18.126 19.6542 18.196 19.2248 18.196C18.8982 18.196 18.5855 18.1493 18.2868 18.056C17.9882 17.972 17.7222 17.846 17.4888 17.678C17.2648 17.5007 17.0828 17.2813 16.9428 17.02C16.8122 16.7493 16.7468 16.4367 16.7468 16.082C16.7468 15.634 16.8262 15.27 16.9848 14.99C17.1528 14.71 17.3675 14.4907 17.6288 14.332C17.8995 14.1733 18.1982 14.0613 18.5248 13.996C18.8608 13.9213 19.1968 13.8653 19.5328 13.828C19.8222 13.772 20.0975 13.7347 20.3588 13.716C20.6202 13.688 20.8488 13.646 21.0448 13.59C21.2502 13.534 21.4088 13.45 21.5208 13.338C21.6422 13.2167 21.7028 13.0393 21.7028 12.806C21.7028 12.6007 21.6515 12.4327 21.5488 12.302C21.4555 12.1713 21.3342 12.0733 21.1848 12.008C21.0448 11.9333 20.8862 11.8867 20.7088 11.868C20.5315 11.84 20.3635 11.826 20.2048 11.826C19.7568 11.826 19.3882 11.9193 19.0988 12.106C18.8095 12.2927 18.6462 12.582 18.6088 12.974H17.0128C17.0408 12.5073 17.1528 12.12 17.3488 11.812C17.5448 11.504 17.7922 11.2567 18.0908 11.07C18.3988 10.8833 18.7442 10.7527 19.1268 10.678C19.5095 10.6033 19.9015 10.566 20.3028 10.566C20.6575 10.566 21.0075 10.6033 21.3528 10.678C21.6982 10.7527 22.0062 10.874 22.2768 11.042C22.5568 11.21 22.7808 11.4293 22.9488 11.7C23.1168 11.9613 23.2008 12.2833 23.2008 12.666V16.39ZM21.6048 14.374C21.3622 14.5327 21.0635 14.6307 20.7088 14.668C20.3542 14.696 19.9995 14.7427 19.6448 14.808C19.4768 14.836 19.3135 14.878 19.1548 14.934C18.9962 14.9807 18.8562 15.0507 18.7348 15.144C18.6135 15.228 18.5155 15.3447 18.4408 15.494C18.3755 15.634 18.3428 15.8067 18.3428 16.012C18.3428 16.1893 18.3942 16.3387 18.4968 16.46C18.5995 16.5813 18.7208 16.6793 18.8608 16.754C19.0102 16.8193 19.1688 16.866 19.3368 16.894C19.5142 16.922 19.6728 16.936 19.8128 16.936C19.9902 16.936 20.1815 16.9127 20.3868 16.866C20.5922 16.8193 20.7835 16.74 20.9608 16.628C21.1475 16.516 21.3015 16.376 21.4228 16.208C21.5442 16.0307 21.6048 15.816 21.6048 15.564V14.374ZM24.9601 8.004H26.5561V9.516H24.9601V8.004ZM24.9601 10.762H26.5561V18H24.9601V10.762ZM28.3371 8.004H29.9331V18H28.3371V8.004ZM36.642 13.744C36.6234 13.492 36.5674 13.2493 36.474 13.016C36.39 12.7827 36.2687 12.582 36.11 12.414C35.9607 12.2367 35.774 12.0967 35.55 11.994C35.3354 11.882 35.0927 11.826 34.822 11.826C34.542 11.826 34.2854 11.8773 34.052 11.98C33.828 12.0733 33.632 12.2087 33.464 12.386C33.3054 12.554 33.1747 12.7547 33.072 12.988C32.9787 13.2213 32.9274 13.4733 32.918 13.744H36.642ZM32.918 14.794C32.918 15.074 32.9554 15.3447 33.03 15.606C33.114 15.8673 33.2354 16.096 33.394 16.292C33.5527 16.488 33.7534 16.6467 33.996 16.768C34.2387 16.88 34.528 16.936 34.864 16.936C35.3307 16.936 35.704 16.838 35.984 16.642C36.2734 16.4367 36.488 16.1333 36.628 15.732H38.14C38.056 16.124 37.9114 16.474 37.706 16.782C37.5007 17.09 37.2534 17.3513 36.964 17.566C36.6747 17.7713 36.348 17.9253 35.984 18.028C35.6294 18.14 35.256 18.196 34.864 18.196C34.2947 18.196 33.7907 18.1027 33.352 17.916C32.9134 17.7293 32.54 17.468 32.232 17.132C31.9334 16.796 31.7047 16.3947 31.546 15.928C31.3967 15.4613 31.322 14.948 31.322 14.388C31.322 13.8747 31.4014 13.3893 31.56 12.932C31.728 12.4653 31.9614 12.0593 32.26 11.714C32.568 11.3593 32.9367 11.0793 33.366 10.874C33.7954 10.6687 34.2807 10.566 34.822 10.566C35.3914 10.566 35.9 10.6873 36.348 10.93C36.8054 11.1633 37.1834 11.476 37.482 11.868C37.7807 12.26 37.9954 12.7127 38.126 13.226C38.266 13.73 38.3034 14.2527 38.238 14.794H32.918ZM46.2693 18H44.7573V17.02H44.7293C44.5147 17.44 44.202 17.7433 43.7913 17.93C43.3807 18.1073 42.9467 18.196 42.4893 18.196C41.92 18.196 41.4207 18.098 40.9913 17.902C40.5713 17.6967 40.2213 17.4213 39.9413 17.076C39.6613 16.7307 39.4513 16.3247 39.3113 15.858C39.1713 15.382 39.1013 14.8733 39.1013 14.332C39.1013 13.6787 39.19 13.114 39.3673 12.638C39.5447 12.162 39.778 11.77 40.0673 11.462C40.366 11.154 40.702 10.93 41.0753 10.79C41.458 10.6407 41.8453 10.566 42.2373 10.566C42.4613 10.566 42.69 10.5893 42.9233 10.636C43.1567 10.6733 43.3807 10.7387 43.5953 10.832C43.81 10.9253 44.006 11.0467 44.1833 11.196C44.37 11.336 44.524 11.504 44.6453 11.7H44.6733V8.004H46.2693V18ZM40.6973 14.458C40.6973 14.766 40.7347 15.0693 40.8093 15.368C40.8933 15.6667 41.0147 15.9327 41.1733 16.166C41.3413 16.3993 41.5513 16.586 41.8033 16.726C42.0553 16.866 42.354 16.936 42.6993 16.936C43.054 16.936 43.3573 16.8613 43.6093 16.712C43.8707 16.5627 44.0807 16.3667 44.2393 16.124C44.4073 15.8813 44.5287 15.6107 44.6033 15.312C44.6873 15.004 44.7293 14.6913 44.7293 14.374C44.7293 13.5713 44.5473 12.946 44.1833 12.498C43.8287 12.05 43.3433 11.826 42.7273 11.826C42.354 11.826 42.0367 11.9053 41.7753 12.064C41.5233 12.2133 41.3133 12.414 41.1453 12.666C40.9867 12.9087 40.87 13.1887 40.7953 13.506C40.73 13.814 40.6973 14.1313 40.6973 14.458Z" fill="#414857"/></svg>