<svg width="64" height="25" viewBox="0 0 64 25" fill="none" xmlns="http://www.w3.org/2000/svg"><rect x="0.5" y="0.5" width="63" height="24" rx="3.5" fill="#D9FAD2"/><rect x="0.5" y="0.5" width="63" height="24" rx="3.5" stroke="#5E6D81"/><path d="M9.064 8.004H13.474C14.1833 8.004 14.762 8.10667 15.21 8.312C15.658 8.51733 16.0033 8.774 16.246 9.082C16.4887 9.39 16.652 9.726 16.736 10.09C16.8293 10.454 16.876 10.79 16.876 11.098C16.876 11.406 16.8293 11.742 16.736 12.106C16.652 12.4607 16.4887 12.792 16.246 13.1C16.0033 13.408 15.658 13.6647 15.21 13.87C14.762 14.066 14.1833 14.164 13.474 14.164H10.814V18H9.064V8.004ZM10.814 12.736H13.376C13.572 12.736 13.7727 12.708 13.978 12.652C14.1833 12.596 14.37 12.5073 14.538 12.386C14.7153 12.2553 14.8553 12.0873 14.958 11.882C15.07 11.6673 15.126 11.4013 15.126 11.084C15.126 10.7573 15.0793 10.4867 14.986 10.272C14.8927 10.0573 14.7667 9.88933 14.608 9.768C14.4493 9.63733 14.2673 9.54867 14.062 9.502C13.8567 9.45533 13.6373 9.432 13.404 9.432H10.814V12.736ZM24.2399 16.39C24.2399 16.586 24.2632 16.726 24.3099 16.81C24.3659 16.894 24.4686 16.936 24.6179 16.936C24.6646 16.936 24.7206 16.936 24.7859 16.936C24.8512 16.936 24.9259 16.9267 25.0099 16.908V18.014C24.9539 18.0327 24.8792 18.0513 24.7859 18.07C24.7019 18.098 24.6132 18.1213 24.5199 18.14C24.4266 18.1587 24.3332 18.1727 24.2399 18.182C24.1466 18.1913 24.0672 18.196 24.0019 18.196C23.6752 18.196 23.4046 18.1307 23.1899 18C22.9752 17.8693 22.8352 17.6407 22.7699 17.314C22.4526 17.622 22.0606 17.846 21.5939 17.986C21.1366 18.126 20.6932 18.196 20.2639 18.196C19.9372 18.196 19.6246 18.1493 19.3259 18.056C19.0272 17.972 18.7612 17.846 18.5279 17.678C18.3039 17.5007 18.1219 17.2813 17.9819 17.02C17.8512 16.7493 17.7859 16.4367 17.7859 16.082C17.7859 15.634 17.8652 15.27 18.0239 14.99C18.1919 14.71 18.4066 14.4907 18.6679 14.332C18.9386 14.1733 19.2372 14.0613 19.5639 13.996C19.8999 13.9213 20.2359 13.8653 20.5719 13.828C20.8612 13.772 21.1366 13.7347 21.3979 13.716C21.6592 13.688 21.8879 13.646 22.0839 13.59C22.2892 13.534 22.4479 13.45 22.5599 13.338C22.6812 13.2167 22.7419 13.0393 22.7419 12.806C22.7419 12.6007 22.6906 12.4327 22.5879 12.302C22.4946 12.1713 22.3732 12.0733 22.2239 12.008C22.0839 11.9333 21.9252 11.8867 21.7479 11.868C21.5706 11.84 21.4026 11.826 21.2439 11.826C20.7959 11.826 20.4272 11.9193 20.1379 12.106C19.8486 12.2927 19.6852 12.582 19.6479 12.974H18.0519C18.0799 12.5073 18.1919 12.12 18.3879 11.812C18.5839 11.504 18.8312 11.2567 19.1299 11.07C19.4379 10.8833 19.7832 10.7527 20.1659 10.678C20.5486 10.6033 20.9406 10.566 21.3419 10.566C21.6966 10.566 22.0466 10.6033 22.3919 10.678C22.7372 10.7527 23.0452 10.874 23.3159 11.042C23.5959 11.21 23.8199 11.4293 23.9879 11.7C24.1559 11.9613 24.2399 12.2833 24.2399 12.666V16.39ZM22.6439 14.374C22.4012 14.5327 22.1026 14.6307 21.7479 14.668C21.3932 14.696 21.0386 14.7427 20.6839 14.808C20.5159 14.836 20.3526 14.878 20.1939 14.934C20.0352 14.9807 19.8952 15.0507 19.7739 15.144C19.6526 15.228 19.5546 15.3447 19.4799 15.494C19.4146 15.634 19.3819 15.8067 19.3819 16.012C19.3819 16.1893 19.4332 16.3387 19.5359 16.46C19.6386 16.5813 19.7599 16.6793 19.8999 16.754C20.0492 16.8193 20.2079 16.866 20.3759 16.894C20.5532 16.922 20.7119 16.936 20.8519 16.936C21.0292 16.936 21.2206 16.9127 21.4259 16.866C21.6312 16.8193 21.8226 16.74 21.9999 16.628C22.1866 16.516 22.3406 16.376 22.4619 16.208C22.5832 16.0307 22.6439 15.816 22.6439 15.564V14.374ZM27.1612 15.676C27.2079 16.1427 27.3852 16.4693 27.6932 16.656C28.0012 16.8427 28.3699 16.936 28.7992 16.936C28.9485 16.936 29.1165 16.9267 29.3032 16.908C29.4992 16.88 29.6812 16.8333 29.8492 16.768C30.0172 16.7027 30.1525 16.6093 30.2552 16.488C30.3672 16.3573 30.4185 16.1893 30.4092 15.984C30.3999 15.7787 30.3252 15.6107 30.1852 15.48C30.0452 15.3493 29.8632 15.2467 29.6392 15.172C29.4245 15.088 29.1772 15.018 28.8972 14.962C28.6172 14.906 28.3325 14.8453 28.0432 14.78C27.7445 14.7147 27.4552 14.6353 27.1752 14.542C26.9045 14.4487 26.6572 14.3227 26.4332 14.164C26.2185 14.0053 26.0459 13.8047 25.9152 13.562C25.7845 13.31 25.7192 13.002 25.7192 12.638C25.7192 12.246 25.8125 11.9193 25.9992 11.658C26.1952 11.3873 26.4379 11.1727 26.7272 11.014C27.0259 10.846 27.3525 10.7293 27.7072 10.664C28.0712 10.5987 28.4165 10.566 28.7432 10.566C29.1165 10.566 29.4712 10.608 29.8072 10.692C30.1525 10.7667 30.4605 10.8927 30.7312 11.07C31.0112 11.2473 31.2399 11.4807 31.4172 11.77C31.6039 12.05 31.7205 12.3907 31.7672 12.792H30.1012C30.0265 12.4093 29.8492 12.1527 29.5692 12.022C29.2985 11.8913 28.9859 11.826 28.6312 11.826C28.5192 11.826 28.3839 11.8353 28.2252 11.854C28.0759 11.8727 27.9312 11.91 27.7912 11.966C27.6605 12.0127 27.5485 12.0873 27.4552 12.19C27.3619 12.2833 27.3152 12.4093 27.3152 12.568C27.3152 12.764 27.3805 12.9227 27.5112 13.044C27.6512 13.1653 27.8285 13.268 28.0432 13.352C28.2672 13.4267 28.5192 13.492 28.7992 13.548C29.0792 13.604 29.3685 13.6647 29.6672 13.73C29.9565 13.7953 30.2412 13.8747 30.5212 13.968C30.8012 14.0613 31.0485 14.1873 31.2632 14.346C31.4872 14.5047 31.6645 14.7053 31.7952 14.948C31.9352 15.1907 32.0052 15.4893 32.0052 15.844C32.0052 16.2733 31.9072 16.6373 31.7112 16.936C31.5152 17.2347 31.2585 17.4773 30.9412 17.664C30.6332 17.8507 30.2879 17.986 29.9052 18.07C29.5225 18.154 29.1445 18.196 28.7712 18.196C28.3139 18.196 27.8892 18.1447 27.4972 18.042C27.1145 17.9393 26.7785 17.7853 26.4892 17.58C26.2092 17.3653 25.9852 17.104 25.8172 16.796C25.6585 16.4787 25.5745 16.1053 25.5652 15.676H27.1612ZM34.421 15.676C34.4676 16.1427 34.645 16.4693 34.953 16.656C35.261 16.8427 35.6296 16.936 36.059 16.936C36.2083 16.936 36.3763 16.9267 36.563 16.908C36.759 16.88 36.941 16.8333 37.109 16.768C37.277 16.7027 37.4123 16.6093 37.515 16.488C37.627 16.3573 37.6783 16.1893 37.669 15.984C37.6596 15.7787 37.585 15.6107 37.445 15.48C37.305 15.3493 37.123 15.2467 36.899 15.172C36.6843 15.088 36.437 15.018 36.157 14.962C35.877 14.906 35.5923 14.8453 35.303 14.78C35.0043 14.7147 34.715 14.6353 34.435 14.542C34.1643 14.4487 33.917 14.3227 33.693 14.164C33.4783 14.0053 33.3056 13.8047 33.175 13.562C33.0443 13.31 32.979 13.002 32.979 12.638C32.979 12.246 33.0723 11.9193 33.259 11.658C33.455 11.3873 33.6976 11.1727 33.987 11.014C34.2856 10.846 34.6123 10.7293 34.967 10.664C35.331 10.5987 35.6763 10.566 36.003 10.566C36.3763 10.566 36.731 10.608 37.067 10.692C37.4123 10.7667 37.7203 10.8927 37.991 11.07C38.271 11.2473 38.4996 11.4807 38.677 11.77C38.8636 12.05 38.9803 12.3907 39.027 12.792H37.361C37.2863 12.4093 37.109 12.1527 36.829 12.022C36.5583 11.8913 36.2456 11.826 35.891 11.826C35.779 11.826 35.6436 11.8353 35.485 11.854C35.3356 11.8727 35.191 11.91 35.051 11.966C34.9203 12.0127 34.8083 12.0873 34.715 12.19C34.6216 12.2833 34.575 12.4093 34.575 12.568C34.575 12.764 34.6403 12.9227 34.771 13.044C34.911 13.1653 35.0883 13.268 35.303 13.352C35.527 13.4267 35.779 13.492 36.059 13.548C36.339 13.604 36.6283 13.6647 36.927 13.73C37.2163 13.7953 37.501 13.8747 37.781 13.968C38.061 14.0613 38.3083 14.1873 38.523 14.346C38.747 14.5047 38.9243 14.7053 39.055 14.948C39.195 15.1907 39.265 15.4893 39.265 15.844C39.265 16.2733 39.167 16.6373 38.971 16.936C38.775 17.2347 38.5183 17.4773 38.201 17.664C37.893 17.8507 37.5476 17.986 37.165 18.07C36.7823 18.154 36.4043 18.196 36.031 18.196C35.5736 18.196 35.149 18.1447 34.757 18.042C34.3743 17.9393 34.0383 17.7853 33.749 17.58C33.469 17.3653 33.245 17.104 33.077 16.796C32.9183 16.4787 32.8343 16.1053 32.825 15.676H34.421ZM45.4467 13.744C45.4281 13.492 45.3721 13.2493 45.2787 13.016C45.1947 12.7827 45.0734 12.582 44.9147 12.414C44.7654 12.2367 44.5787 12.0967 44.3547 11.994C44.1401 11.882 43.8974 11.826 43.6267 11.826C43.3467 11.826 43.0901 11.8773 42.8567 11.98C42.6327 12.0733 42.4367 12.2087 42.2687 12.386C42.1101 12.554 41.9794 12.7547 41.8767 12.988C41.7834 13.2213 41.7321 13.4733 41.7227 13.744H45.4467ZM41.7227 14.794C41.7227 15.074 41.7601 15.3447 41.8347 15.606C41.9187 15.8673 42.0401 16.096 42.1987 16.292C42.3574 16.488 42.5581 16.6467 42.8007 16.768C43.0434 16.88 43.3327 16.936 43.6687 16.936C44.1354 16.936 44.5087 16.838 44.7887 16.642C45.0781 16.4367 45.2927 16.1333 45.4327 15.732H46.9447C46.8607 16.124 46.7161 16.474 46.5107 16.782C46.3054 17.09 46.0581 17.3513 45.7687 17.566C45.4794 17.7713 45.1527 17.9253 44.7887 18.028C44.4341 18.14 44.0607 18.196 43.6687 18.196C43.0994 18.196 42.5954 18.1027 42.1567 17.916C41.7181 17.7293 41.3447 17.468 41.0367 17.132C40.7381 16.796 40.5094 16.3947 40.3507 15.928C40.2014 15.4613 40.1267 14.948 40.1267 14.388C40.1267 13.8747 40.2061 13.3893 40.3647 12.932C40.5327 12.4653 40.7661 12.0593 41.0647 11.714C41.3727 11.3593 41.7414 11.0793 42.1707 10.874C42.6001 10.6687 43.0854 10.566 43.6267 10.566C44.1961 10.566 44.7047 10.6873 45.1527 10.93C45.6101 11.1633 45.9881 11.476 46.2867 11.868C46.5854 12.26 46.8001 12.7127 46.9307 13.226C47.0707 13.73 47.1081 14.2527 47.0427 14.794H41.7227ZM55.074 18H53.562V17.02H53.534C53.3193 17.44 53.0067 17.7433 52.596 17.93C52.1853 18.1073 51.7513 18.196 51.294 18.196C50.7247 18.196 50.2253 18.098 49.796 17.902C49.376 17.6967 49.026 17.4213 48.746 17.076C48.466 16.7307 48.256 16.3247 48.116 15.858C47.976 15.382 47.906 14.8733 47.906 14.332C47.906 13.6787 47.9947 13.114 48.172 12.638C48.3493 12.162 48.5827 11.77 48.872 11.462C49.1707 11.154 49.5067 10.93 49.88 10.79C50.2627 10.6407 50.65 10.566 51.042 10.566C51.266 10.566 51.4947 10.5893 51.728 10.636C51.9613 10.6733 52.1853 10.7387 52.4 10.832C52.6147 10.9253 52.8107 11.0467 52.988 11.196C53.1747 11.336 53.3287 11.504 53.45 11.7H53.478V8.004H55.074V18ZM49.502 14.458C49.502 14.766 49.5393 15.0693 49.614 15.368C49.698 15.6667 49.8193 15.9327 49.978 16.166C50.146 16.3993 50.356 16.586 50.608 16.726C50.86 16.866 51.1587 16.936 51.504 16.936C51.8587 16.936 52.162 16.8613 52.414 16.712C52.6753 16.5627 52.8853 16.3667 53.044 16.124C53.212 15.8813 53.3333 15.6107 53.408 15.312C53.492 15.004 53.534 14.6913 53.534 14.374C53.534 13.5713 53.352 12.946 52.988 12.498C52.6333 12.05 52.148 11.826 51.532 11.826C51.1587 11.826 50.8413 11.9053 50.58 12.064C50.328 12.2133 50.118 12.414 49.95 12.666C49.7913 12.9087 49.6747 13.1887 49.6 13.506C49.5347 13.814 49.502 14.1313 49.502 14.458Z" fill="#414857"/></svg>