<svg width="25" height="24" viewBox="0 0 25 24" fill="none" xmlns="http://www.w3.org/2000/svg">
<path fill-rule="evenodd" clip-rule="evenodd" d="M11.337 2.18126C11.9199 1.93958 12.5725 1.93958 13.1554 2.18126L20.2909 5.1088C20.5762 5.22622 20.8202 5.42822 20.9912 5.68855C21.1623 5.94889 21.2524 6.25554 21.25 6.56867V10.0583C21.2554 12.7181 20.4199 15.3092 18.867 17.4487C17.3141 19.5883 15.126 21.163 12.626 21.9402C12.3762 22.0199 12.1085 22.0199 11.8587 21.9402C9.35842 21.1606 7.17121 19.5826 5.6208 17.4399C4.07039 15.2972 3.23915 12.7035 3.25011 10.0427V6.56867C3.25073 6.25819 3.3423 5.95496 3.51314 5.6977C3.68397 5.44044 3.92631 5.24085 4.20918 5.12442L11.337 2.18126Z" fill="#B91C1C"/>
<path d="M12.819 16.8375C12.9589 16.6932 13.0374 16.4976 13.0374 16.2935C13.0374 16.0895 12.9589 15.8938 12.819 15.7496C12.6792 15.6053 12.4896 15.5242 12.2918 15.5242C12.0925 15.5242 11.9012 15.6047 11.7588 15.7485C11.6163 15.8923 11.5342 16.088 11.53 16.2935C11.5342 16.4991 11.6163 16.6947 11.7588 16.8385C11.9012 16.9824 12.0925 17.0629 12.2918 17.0628C12.4896 17.0628 12.6792 16.9818 12.819 16.8375Z" fill="white"/>
<path d="M11.7531 7.94451C11.6102 8.09192 11.53 8.29184 11.53 8.5003V13.1495C11.53 13.3579 11.6102 13.5579 11.7531 13.7053C11.896 13.8527 12.0898 13.9355 12.2918 13.9355C12.3911 13.9355 12.4894 13.9151 12.5809 13.8754C12.6725 13.8357 12.7554 13.7775 12.8248 13.7043C12.8943 13.6311 12.9489 13.5443 12.9854 13.449C13.0219 13.3537 13.0396 13.2519 13.0374 13.1495V8.5003C13.0396 8.39788 13.0219 8.29604 12.9854 8.20077C12.9489 8.10549 12.8943 8.01871 12.8248 7.94549C12.7554 7.87228 12.6725 7.81411 12.5809 7.77441C12.4894 7.7347 12.3911 7.71426 12.2918 7.71429C12.0898 7.71429 11.896 7.79711 11.7531 7.94451Z" fill="white"/>
<path fill-rule="evenodd" clip-rule="evenodd" d="M11.337 2.18126C11.9199 1.93958 12.5725 1.93958 13.1554 2.18126L20.2909 5.1088C20.5762 5.22622 20.8202 5.42822 20.9912 5.68855C21.1623 5.94889 21.2524 6.25554 21.25 6.56867V10.0583C21.2554 12.7181 20.4199 15.3092 18.867 17.4487C17.3141 19.5883 15.126 21.163 12.626 21.9402C12.3762 22.0199 12.1085 22.0199 11.8587 21.9402C9.35842 21.1606 7.17121 19.5826 5.6208 17.4399C4.07039 15.2972 3.23915 12.7035 3.25011 10.0427V6.56867C3.25073 6.25819 3.3423 5.95496 3.51314 5.6977C3.68397 5.44044 3.92631 5.24085 4.20918 5.12442L11.337 2.18126Z" fill="#B91C1C"/>
<path d="M12.819 16.8375C12.9589 16.6932 13.0374 16.4976 13.0374 16.2935C13.0374 16.0895 12.9589 15.8938 12.819 15.7496C12.6792 15.6053 12.4896 15.5242 12.2918 15.5242C12.0925 15.5242 11.9012 15.6047 11.7588 15.7485C11.6163 15.8923 11.5342 16.088 11.53 16.2935C11.5342 16.4991 11.6163 16.6947 11.7588 16.8385C11.9012 16.9824 12.0925 17.0629 12.2918 17.0628C12.4896 17.0628 12.6792 16.9818 12.819 16.8375Z" fill="white"/>
<path d="M11.7531 7.94451C11.6102 8.09192 11.53 8.29184 11.53 8.5003V13.1495C11.53 13.3579 11.6102 13.5579 11.7531 13.7053C11.896 13.8527 12.0898 13.9355 12.2918 13.9355C12.3911 13.9355 12.4894 13.9151 12.5809 13.8754C12.6725 13.8357 12.7554 13.7775 12.8248 13.7043C12.8943 13.6311 12.9489 13.5443 12.9854 13.449C13.0219 13.3537 13.0396 13.2519 13.0374 13.1495V8.5003C13.0396 8.39788 13.0219 8.29604 12.9854 8.20077C12.9489 8.10549 12.8943 8.01871 12.8248 7.94549C12.7554 7.87228 12.6725 7.81411 12.5809 7.77441C12.4894 7.7347 12.3911 7.71426 12.2918 7.71429C12.0898 7.71429 11.896 7.79711 11.7531 7.94451Z" fill="white"/>
</svg>
