<svg width="25" height="24" viewBox="0 0 25 24" fill="none" xmlns="http://www.w3.org/2000/svg">
<path fill-rule="evenodd" clip-rule="evenodd" d="M11.587 2.18126C12.1699 1.93958 12.8225 1.93958 13.4054 2.18126L20.5409 5.1088C20.8262 5.22622 21.0702 5.42822 21.2412 5.68855C21.4123 5.94889 21.5024 6.25554 21.5 6.56867V10.0583C21.5054 12.7181 20.6699 15.3092 19.117 17.4487C17.5641 19.5883 15.376 21.163 12.876 21.9402C12.6262 22.0199 12.3585 22.0199 12.1087 21.9402C9.60842 21.1606 7.42121 19.5826 5.8708 17.4399C4.32039 15.2972 3.48915 12.7035 3.50011 10.0427V6.56867C3.50073 6.25819 3.5923 5.95496 3.76314 5.6977C3.93397 5.44044 4.17631 5.24085 4.45918 5.12442L11.587 2.18126Z" fill="#E93838"/>
<path d="M16.0542 16.1783H14.5938V12.0412H10.4927V16.1783H9.03846V7H10.4927V10.7542H14.5938V7H16.0542V16.1783Z" fill="white"/>
</svg>
