<svg width="25" height="24" viewBox="0 0 25 24" fill="none" xmlns="http://www.w3.org/2000/svg">
<path d="M11.837 2.18126C12.4199 1.93958 13.0725 1.93958 13.6554 2.18126L20.7909 5.1088C21.0762 5.22622 21.3202 5.42822 21.4912 5.68855C21.6623 5.94889 21.7524 6.25554 21.75 6.56867V10.0583C21.7554 12.7181 20.9199 15.3092 19.367 17.4487C17.8141 19.5883 15.626 21.163 13.126 21.9402C12.8762 22.0199 12.6085 22.0199 12.3587 21.9402C9.85842 21.1606 7.67121 19.5826 6.1208 17.4399C4.57039 15.2972 3.73915 12.7035 3.75011 10.0427V6.56867C3.75073 6.25819 3.8423 5.95496 4.01314 5.6977C4.18397 5.44044 4.42631 5.24085 4.70918 5.12442L11.837 2.18126Z" fill="#FFCF31"/>
<path d="M10.6731 16.1783V7H12.1273V14.8913H15.8938V16.1783H10.6731Z" fill="white"/>
</svg>