<svg width="24" height="24" viewBox="0 0 24 24" fill="none" xmlns="http://www.w3.org/2000/svg">
<path fill-rule="evenodd" clip-rule="evenodd" d="M11.087 2.18126C11.6699 1.93958 12.3225 1.93958 12.9054 2.18126L20.0409 5.1088C20.3262 5.22622 20.5702 5.42822 20.7412 5.68855C20.9123 5.94889 21.0024 6.25554 21 6.56867V10.0583C21.0054 12.7181 20.1699 15.3092 18.617 17.4487C17.0641 19.5883 14.876 21.163 12.376 21.9402C12.1262 22.0199 11.8585 22.0199 11.6087 21.9402C9.10842 21.1606 6.92121 19.5826 5.3708 17.4399C3.82039 15.2972 2.98915 12.7035 3.00011 10.0427V6.56867C3.00073 6.25819 3.0923 5.95496 3.26314 5.6977C3.43397 5.44044 3.67631 5.24085 3.95918 5.12442L11.087 2.18126Z" fill="#B4BACC"/>
<path d="M7.84615 11.2857C7.84615 10.8912 8.15611 10.5714 8.53846 10.5714H15.4615C15.8439 10.5714 16.1538 10.8912 16.1538 11.2857C16.1538 11.6802 15.8439 12 15.4615 12H8.53846C8.15611 12 7.84615 11.6802 7.84615 11.2857Z" fill="white"/>
</svg>