<svg width="18" height="20" viewBox="0 0 18 20" fill="none" xmlns="http://www.w3.org/2000/svg"><path fill-rule="evenodd" clip-rule="evenodd" d="M8.08699 0.181263C8.66986 -0.0604211 9.32253 -0.0604211 9.90539 0.181263L17.0409 3.1088C17.3262 3.22622 17.5702 3.42822 17.7412 3.68855C17.9123 3.94889 18.0024 4.25554 18 4.56867V8.05829C18.0054 10.7181 17.1699 13.3092 15.617 15.4487C14.0641 17.5883 11.876 19.163 9.37599 19.9402C9.12624 20.0199 8.85848 20.0199 8.60873 19.9402C6.10842 19.1606 3.92121 17.5826 2.3708 15.4399C0.820389 13.2972 -0.0108478 10.7035 0.000106903 8.04268V4.56867C0.000725006 4.25819 0.0923017 3.95496 0.263136 3.6977C0.433971 3.44044 0.676306 3.24085 0.959178 3.12442L8.08699 0.181263Z" fill="#F59E0B"/><path d="M8.27632 14.3227L5.69639 6.65737H5.64772C5.71668 7.79576 5.75116 8.863 5.75116 9.8591V14.3227H4.43077V5.14439H6.48133L8.95173 12.4456H8.98824L11.5317 5.14439H13.5883V14.3227H12.1888V9.78376C12.1888 9.32757 12.1989 8.73326 12.2192 8.00084C12.2436 7.26842 12.2639 6.82478 12.2801 6.66992H12.2314L9.5602 14.3227H8.27632Z" fill="white"/></svg>